<svg height="100%" stroke-miterlimit="10" style="fill-rule:nonzero;clip-rule:evenodd;stroke-linecap:round;stroke-linejoin:round;" version="1.1" viewBox="0 0 1024 1024" width="100%" xml:space="preserve" xmlns="http://www.w3.org/2000/svg" xmlns:vectornator="http://vectornator.io" xmlns:xlink="http://www.w3.org/1999/xlink">
<defs/>
<g id="Layer-1" vectornator:layerName="Layer 1">
<g fill="#000000" opacity="1" stroke="none">
<path d="M271.65 523.942C269.963 511.798 265.578 503.28 258.494 498.389C251.41 493.498 240.278 491.052 225.098 491.052C212.617 491.052 203.003 492.654 196.256 495.859C189.509 499.064 186.136 504.377 186.136 511.798C186.136 519.219 189.509 524.87 196.256 528.749C203.003 532.628 213.123 536.423 226.616 540.134C240.784 544.182 254.277 547.808 267.096 551.013C279.915 554.218 291.215 557.675 300.998 561.386C314.154 566.783 324.274 574.12 331.358 583.397C338.442 592.674 341.984 605.408 341.984 621.6C341.984 647.575 332.792 667.815 314.407 682.32C296.022 696.825 268.951 704.078 233.194 704.078C194.738 704.078 165.306 695.982 144.897 679.79C124.488 663.598 113.947 642.852 113.272 617.552L181.076 617.552C181.076 629.359 185.63 638.467 194.738 644.876C203.846 651.285 216.496 654.49 232.688 654.49C244.495 654.49 254.783 652.55 263.554 648.671C272.325 644.792 276.71 638.129 276.71 628.684C276.71 619.913 272.746 613.673 264.819 609.962C256.892 606.251 247.531 603.047 236.736 600.348C215.821 595.288 198.955 590.734 186.136 586.686C173.317 582.638 162.523 577.747 153.752 572.012C141.945 564.591 133.765 556.157 129.211 546.712C124.657 537.267 122.38 526.978 122.38 515.846C122.38 505.389 124.235 495.606 127.946 486.498C131.657 477.39 137.729 469.547 146.162 462.969C154.595 456.391 165.474 451.247 178.799 447.536C192.124 443.825 208.231 441.97 227.122 441.97C263.217 441.97 289.782 448.885 306.817 462.716C323.852 476.547 333.213 496.955 334.9 523.942L271.65 523.942Z"/>
<path d="M498.844 533.556L560.07 533.556L560.07 604.396C560.07 617.552 558.13 630.118 554.251 642.093C550.372 654.068 544.3 664.694 536.035 673.971C527.77 683.248 517.313 690.585 504.663 695.982C492.013 701.379 476.917 704.078 459.376 704.078C441.16 704.078 425.643 701.379 412.824 695.982C400.005 690.585 389.464 683.332 381.199 674.224C372.934 665.116 366.947 654.49 363.236 642.346C359.525 630.202 357.67 617.383 357.67 603.89L357.67 381.25L422.438 381.25L422.438 448.548L560.07 448.548L560.07 495.1L422.438 495.1L422.438 597.312C422.438 613.167 425.39 625.395 431.293 633.997C437.196 642.599 446.895 646.9 460.388 646.9C473.544 646.9 483.242 642.683 489.483 634.25C495.724 625.817 498.844 613.841 498.844 598.324L498.844 533.556Z"/>
<path d="M588.406 697.5L588.406 448.548L654.186 448.548L654.186 697.5L588.406 697.5ZM588.406 418.694L588.406 357.468L654.186 357.468L654.186 418.694L588.406 418.694Z"/>
<path d="M836.852 697.5L782.204 585.674L750.326 618.564L750.326 697.5L684.04 697.5L684.04 357.468L750.326 357.468L750.326 543.17L832.298 448.548L912.752 448.548L829.262 540.134L910.728 697.5L836.852 697.5Z"/>
</g>
</g>
</svg>
